<?xml version="1.0" standalone="no"?><!DOCTYPE svg PUBLIC "-//W3C//DTD SVG 1.1//EN" "http://www.w3.org/Graphics/SVG/1.1/DTD/svg11.dtd"><svg t="1678714614879" class="icon" viewBox="0 0 1024 1024" version="1.1" xmlns="http://www.w3.org/2000/svg" p-id="15201" xmlns:xlink="http://www.w3.org/1999/xlink" width="200" height="200"><path d="M511.5 1019.5c-280.1 0-508-227.9-508-508s227.9-508 508-508 508 227.9 508 508-227.9 508-508 508z m0-967c-253.1 0-459 205.9-459 459s205.9 459 459 459 459-205.9 459-459-205.9-459-459-459zM536 645.7V217.1c0-13.5-11-24.5-24.5-24.5s-24.5 11-24.5 24.5v428.7c0 13.5 11 24.5 24.5 24.5s24.5-11 24.5-24.6z m-24.5 86.8c-20.3 0-36.7 16.4-36.7 36.7s16.4 36.7 36.7 36.7c20.3 0 36.7-16.4 36.7-36.7s-16.4-36.7-36.7-36.7z" fill="#333333" p-id="15202"></path></svg>