<?xml version="1.0" standalone="no"?><!DOCTYPE svg PUBLIC "-//W3C//DTD SVG 1.1//EN" "http://www.w3.org/Graphics/SVG/1.1/DTD/svg11.dtd"><svg t="1679319421911" class="icon" viewBox="0 0 1024 1024" version="1.1" xmlns="http://www.w3.org/2000/svg" p-id="1295" xmlns:xlink="http://www.w3.org/1999/xlink" width="200" height="200"><path d="M792.250213 198.708215a44.479698 44.479698 0 0 0-6.768649-79.773371 155.678942 155.678942 0 0 0-58.500473-11.119924 134.406043 134.406043 0 0 0-28.041548 2.90085 213.212465 213.212465 0 0 0-373.726157 0 134.406043 134.406043 0 0 0-28.041549-2.90085 155.678942 155.678942 0 0 0-58.500472 11.119924 44.479698 44.479698 0 0 0-6.768649 79.773371 595.157696 595.157696 0 0 0 560.347497 0z" fill="#FF6248" p-id="1296"></path><path d="M921.338032 711.19169a290.084986 290.084986 0 0 0 0-48.347497l-16.438149-142.141643a272.679887 272.679887 0 0 0-264.944287-241.737489 562.281398 562.281398 0 0 1-253.824363 0 272.679887 272.679887 0 0 0-264.944287 241.737489l-17.405099 142.141643a255.274788 255.274788 0 0 0 0 48.347497 135.372993 135.372993 0 0 0-48.347498 96.694996c0 119.418319 204.509915 216.113314 456.400378 216.113314s456.883853-96.694995 456.883853-216.113314a133.922568 133.922568 0 0 0-47.380548-96.694996z" fill="#FF7061" p-id="1297"></path><path d="M605.145397 669.612842H525.372026v-34.326723h79.773371a14.987724 14.987724 0 0 0 14.987725-14.987724 14.504249 14.504249 0 0 0-14.987725-14.50425h-67.203021l41.578848-72.037771a14.987724 14.987724 0 0 0-5.8017-20.305949 15.471199 15.471199 0 0 0-20.305949 5.318225l-41.095373 72.037771a14.504249 14.504249 0 0 0 0 4.83475 8.219075 8.219075 0 0 0 0-4.83475l-44.963173-73.004721a14.987724 14.987724 0 1 0-25.624174 14.987724l41.578848 72.037771H416.590157a14.020774 14.020774 0 0 0-14.50425 14.50425 14.504249 14.504249 0 0 0 14.50425 14.987724h79.289896v34.326723H416.590157a14.987724 14.987724 0 0 0 0 29.975449h79.289896v78.806421a14.504249 14.504249 0 0 0 14.504249 14.987724 14.987724 14.987724 0 0 0 14.987724-14.987724v-77.839471h79.773371a14.987724 14.987724 0 0 0 0-29.975449z" fill="#FFC7C0" p-id="1298"></path></svg>