<?xml version="1.0" standalone="no"?><!DOCTYPE svg PUBLIC "-//W3C//DTD SVG 1.1//EN" "http://www.w3.org/Graphics/SVG/1.1/DTD/svg11.dtd"><svg t="1678714559911" class="icon" viewBox="0 0 1024 1024" version="1.1" xmlns="http://www.w3.org/2000/svg" p-id="12213" xmlns:xlink="http://www.w3.org/1999/xlink" width="200" height="200"><path d="M603.76703 297.695123 421.686065 297.695123c-77.229942 0-140.062989 62.833047-140.062989 140.062989l0 316.953745c0 11.04966 8.959046 20.008706 20.008706 20.008706l89.229231 0 0 14.416338c0 32.026414 25.213241 58.273195 56.83238 59.940161l0 46.693462c0 35.859719 29.173436 65.033156 65.033156 65.033156s65.033156-29.173436 65.033156-65.033156l0-46.693462c31.619138-1.666966 56.83238-27.913746 56.83238-59.940161l0-14.416338 89.229231 0c11.04966 0 20.008706-8.959046 20.008706-20.008706L743.830019 437.757089C743.830019 360.527147 680.996972 297.695123 603.76703 297.695123zM537.742291 895.770524c0 13.793144-11.221576 25.01472-25.01472 25.01472s-25.01472-11.221576-25.01472-25.01472L487.712851 849.163019l50.030463 0L537.743314 895.770524zM594.573647 789.136901c0 11.032264-8.976442 20.008706-20.008706 20.008706l-16.813944 0-90.047876 0-16.813944 0c-11.032264 0-20.008706-8.976442-20.008706-20.008706L430.880471 678.487825c0-45.131897 36.715203-81.8471 81.8471-81.8471s81.8471 36.715203 81.8471 81.8471L594.57467 789.136901zM703.811584 734.702128l-69.220524 0 0-56.214303c0-67.196425-54.66911-121.864512-121.864512-121.864512s-121.864512 54.66911-121.864512 121.864512l0 56.214303-69.220524 0L321.641511 437.757089c0-55.165414 44.87914-100.044554 100.044554-100.044554l182.080965 0c55.165414 0 100.044554 44.87914 100.044554 100.044554L703.811584 734.702128zM787.873118 152.080697 619.798145 152.080697c-0.916882 0-1.812275 0.082888-2.697435 0.201591-9.092076-49.350988-52.433186-86.857207-104.374162-86.857207-51.870368 0-95.16236 37.404911-104.335277 86.655615L231.624335 152.080697c-11.050684 0-20.008706 8.903787-20.008706 19.954471s8.958022 19.954471 20.008706 19.954471l176.950108 0c9.55154 48.77896 52.617381 85.701894 104.152105 85.701894 51.614541 0 94.734618-37.037545 104.196107-85.930091 0.941442 0.135076 1.896186 0.228197 2.87549 0.228197l168.074973 0c11.04966 0 20.008706-8.903787 20.008706-19.954471S798.922778 152.080697 787.873118 152.080697zM512.726547 237.674121c-36.455283 0-66.115813-29.659507-66.115813-66.115813s29.659507-66.115813 66.115813-66.115813 66.115813 29.659507 66.115813 66.115813S549.182854 237.674121 512.726547 237.674121z"  p-id="12214"></path></svg>