<?xml version="1.0" standalone="no"?><!DOCTYPE svg PUBLIC "-//W3C//DTD SVG 1.1//EN" "http://www.w3.org/Graphics/SVG/1.1/DTD/svg11.dtd"><svg t="1678714640472" class="icon" viewBox="0 0 1024 1024" version="1.1" xmlns="http://www.w3.org/2000/svg" p-id="16201" xmlns:xlink="http://www.w3.org/1999/xlink" width="200" height="200"><path d="M206.304 883.264A24 24 0 0 1 168 864V224A88 88 0 0 1 256 136h512A88 88 0 0 1 856 224v640a24 24 0 0 1-39.872 18.016l-58.944-51.968-71.04 51.84a24 24 0 0 1-29.088-0.576l-64.576-51.328-65.44 52.704a24 24 0 0 1-31.616-1.344l-53.6-51.2-76.288 52.16a24 24 0 0 1-29.312-1.696l-58.048-50.624-71.872 53.28zM808 224c0-22.08-17.92-40-40-40H256c-22.08 0-40 17.92-40 40v592.32l49.088-36.416a24 24 0 0 1 30.08 1.184l58.624 51.136 76.992-52.672a24 24 0 0 1 30.144 2.464l52.416 50.08 64-51.52a24 24 0 0 1 29.984-0.128l65.28 51.904 71.872-52.416a24 24 0 0 1 29.984 1.376l33.536 29.536V224z" fill="#979797" p-id="16202"></path><path d="M549.184 433.28h54.208v32.256h-69.44v32.256h69.44v31.808h-69.44V608H480.64v-78.4h-68.544v-31.808h68.544v-32.256h-68.544V433.28h53.312l-81.536-136.192h61.376l62.272 116.48h2.688l63.168-116.48h59.584z" fill="#999999" p-id="16203"></path><path d="M288 704h448a16 16 0 1 0 0-32H288a16 16 0 1 0 0 32z"  p-id="16204"></path></svg>