<?xml version="1.0" standalone="no"?><!DOCTYPE svg PUBLIC "-//W3C//DTD SVG 1.1//EN" "http://www.w3.org/Graphics/SVG/1.1/DTD/svg11.dtd"><svg t="1679319416821" class="icon" viewBox="0 0 1024 1024" version="1.1" xmlns="http://www.w3.org/2000/svg" p-id="1145" xmlns:xlink="http://www.w3.org/1999/xlink" width="200" height="200"><path d="M512 512m-512 0a512 512 0 1 0 1024 0 512 512 0 1 0-1024 0Z" fill="#FF8948" p-id="1146"></path><path d="M512 512m-512 0a512 512 0 1 0 1024 0 512 512 0 1 0-1024 0Z" fill="#FFB98A" p-id="1147"></path><path d="M512 512m-414.47619 0a414.47619 414.47619 0 1 0 828.95238 0 414.47619 414.47619 0 1 0-828.95238 0Z" fill="#FF7631" p-id="1148"></path><path d="M666.087619 540.769524H536.380952V484.205714h129.706667a24.868571 24.868571 0 0 0 24.380952-24.380952 24.380952 24.380952 0 0 0-24.380952-24.380952H555.885714l67.779048-118.00381a24.380952 24.380952 0 0 0-8.777143-33.158095 24.380952 24.380952 0 0 0-33.158095 8.777143l-68.266667 118.003809a23.893333 23.893333 0 0 0 0 7.801905 25.35619 25.35619 0 0 0-2.925714-7.801905L441.295238 292.08381a24.380952 24.380952 0 0 0-33.158095-8.777143 24.380952 24.380952 0 0 0-9.264762 33.158095l68.266667 118.003809H357.912381a24.380952 24.380952 0 0 0-24.380952 24.380953 24.380952 24.380952 0 0 0 24.380952 24.380952H487.619048v56.56381H357.912381a24.380952 24.380952 0 0 0-24.380952 24.380952 24.380952 24.380952 0 0 0 24.380952 24.380952H487.619048v133.12a24.380952 24.380952 0 0 0 24.380952 24.380953 24.868571 24.868571 0 0 0 24.380952-24.380953v-132.144761h129.706667a24.868571 24.868571 0 0 0 24.380952-24.380953 24.380952 24.380952 0 0 0-24.380952-24.380952z" fill="#FFB98A" p-id="1149"></path></svg>