<?xml version="1.0" standalone="no"?><!DOCTYPE svg PUBLIC "-//W3C//DTD SVG 1.1//EN" "http://www.w3.org/Graphics/SVG/1.1/DTD/svg11.dtd"><svg t="1678608249755" class="icon" viewBox="0 0 1024 1024" version="1.1" xmlns="http://www.w3.org/2000/svg" p-id="6631" xmlns:xlink="http://www.w3.org/1999/xlink" width="200" height="200"><path d="M512 0c177.92 0 320 153.898667 320 341.333333 0 96.853333-37.973333 184.789333-99.2 247.125334 156.714667 54.826667 255.658667 175.957333 290.133333 359.765333a64 64 0 0 1-57.258666 75.52L960 1024h-896a64 64 0 0 1-62.890667-75.776c34.474667-183.808 133.418667-304.938667 290.133334-359.765333C229.973333 526.165333 192 438.186667 192 341.333333c0-187.434667 142.08-341.333333 320-341.333333z m0 682.666667c-188.16 0-304.256 64.341333-359.168 198.826666l-4.309333 11.050667-1.28 3.456h729.472l-1.194667-3.456c-50.304-134.826667-158.506667-202.794667-334.677333-209.365333l-14.805334-0.426667L512 682.666667z m0-554.666667C407.168 128 320 222.421333 320 341.333333s87.168 213.333333 192 213.333334c104.874667 0 192-94.421333 192-213.333334S616.874667 128 512 128z"  p-id="6632"></path></svg>