<?xml version="1.0" standalone="no"?><!DOCTYPE svg PUBLIC "-//W3C//DTD SVG 1.1//EN" "http://www.w3.org/Graphics/SVG/1.1/DTD/svg11.dtd"><svg t="1679319425972" class="icon" viewBox="0 0 1024 1024" version="1.1" xmlns="http://www.w3.org/2000/svg" p-id="1444" xmlns:xlink="http://www.w3.org/1999/xlink" width="200" height="200"><path d="M214.30711 698.221622a2403.484703 2403.484703 0 0 0-178.398186 180.261353c71.266116-36.797537 186.316644 73.129283 144.395398 144.395399-10.713207 17.23429 170.479729-169.082354 217.524682-217.524682M809.122995 698.221622c72.197699 69.40295 194.235101 188.645602 178.863978 180.261353-71.266116-36.797537-186.316644 73.129283-144.395399 144.395399 10.247415 17.23429-170.479729-169.082354-217.990473-217.524682" fill="#FC7D27" p-id="1445"></path><path d="M511.947948 409.430824m-409.430824 0a409.430824 409.430824 0 1 0 818.861649 0 409.430824 409.430824 0 1 0-818.861649 0Z" fill="#FFBC85" p-id="1446"></path><path d="M511.947948 409.430824m-291.119756 0a291.119756 291.119756 0 1 0 582.239512 0 291.119756 291.119756 0 1 0-582.239512 0Z" fill="#FC7D27" p-id="1447"></path><path d="M573.432441 352.138457l70.334533 7.918457a18.631664 18.631664 0 0 1 11.178998 31.673829l-47.976536 51.237077a20.494831 20.494831 0 0 0-5.123707 16.768498l13.973748 69.40295a18.631664 18.631664 0 0 1-26.550122 20.494831l-63.347659-30.742246a18.165873 18.165873 0 0 0-17.700081 0l-61.484492 34.468579a18.165873 18.165873 0 0 1-26.08433-17.23429L430.434417 465.791609a18.165873 18.165873 0 0 0-6.055291-16.302706l-52.168661-46.579161a18.631664 18.631664 0 0 1 9.781624-32.139621l69.40295-12.110582a19.097456 19.097456 0 0 0 13.973748-10.713207l29.344872-64.279242a18.631664 18.631664 0 0 1 33.536995 0l32.139621 58.689743a19.097456 19.097456 0 0 0 13.042166 9.781624z" fill="#FFBC85" p-id="1448"></path></svg>