<?xml version="1.0" standalone="no"?><!DOCTYPE svg PUBLIC "-//W3C//DTD SVG 1.1//EN" "http://www.w3.org/Graphics/SVG/1.1/DTD/svg11.dtd"><svg t="1679319408895" class="icon" viewBox="0 0 1024 1024" version="1.1" xmlns="http://www.w3.org/2000/svg" p-id="997" xmlns:xlink="http://www.w3.org/1999/xlink" width="200" height="200"><path d="M802.506022 134.186844a531.36195 531.36195 0 0 1-259.846765-121.172067 44.878543 44.878543 0 0 0-62.82996 0 531.810735 531.810735 0 0 1-259.397979 121.172067 636.826526 636.826526 0 0 1-84.820446 9.424494 52.956681 52.956681 0 0 0-44.878543 56.098179v510.71782a115.337856 115.337856 0 0 0 51.610324 98.732794l323.12551 201.055873a89.757086 89.757086 0 0 0 95.591297 0l323.12551-201.055873a116.235427 116.235427 0 0 0 49.366397-98.732794V199.709517a52.956681 52.956681 0 0 0-44.878543-56.098179 620.670251 620.670251 0 0 1-86.166802-9.424494z"  p-id="998"></path><path d="M638.250554 482.893123h-99.630366V384.609114a28.273482 28.273482 0 0 0-56.546964 0v98.284009H384.686786a28.273482 28.273482 0 0 0 0 56.546965h98.284009v98.732794a28.273482 28.273482 0 0 0 56.546964 0v-98.732794h98.732795a28.273482 28.273482 0 0 0 0-56.546965z"  p-id="999"></path></svg>